<svg xmlns="http://www.w3.org/2000/svg" width="23.548" height="24.948" viewBox="0 0 23.548 24.948">
  <path id="Icon_awesome-arrow-up" data-name="Icon awesome-arrow-up" d="M1.975,16.587l-1.2-1.236a1.361,1.361,0,0,1,0-1.888L11.257,2.639a1.261,1.261,0,0,1,1.828,0L23.565,13.458a1.361,1.361,0,0,1,0,1.888l-1.2,1.236a1.268,1.268,0,0,1-1.85-.022l-6.186-6.7v16a1.313,1.313,0,0,1-1.294,1.336H11.311a1.313,1.313,0,0,1-1.294-1.336v-16l-6.192,6.71a1.259,1.259,0,0,1-1.85.022Z" transform="translate(-0.397 -2.246)" fill="#fa3"/>
</svg>
